<svg width="24" height="24" fill="none" xmlns="http://www.w3.org/2000/svg">
    <path d="m22.632 20.593-2.269-.043c.012.077.018.14.014.184-.007.08-.111.21-.264.355l1.315 1.726c.116.152.08.37-.078.477l-.162.11a.332.332 0 0 1-.465-.096l-1.158-1.79c-.26.17-.525.297-.691.302l-.662 1.956a.332.332 0 0 1-.44.201l-.18-.073a.332.332 0 0 1-.182-.438l.841-1.972a5.602 5.602 0 0 1-.37-.328c-1.821 1.017-3.975 1.54-6.252 1.54-2.31 0-4.463-.516-6.273-1.52a5.688 5.688 0 0 1-.316.28l.853 2a.332.332 0 0 1-.182.438l-.18.073a.332.332 0 0 1-.44-.201l-.662-1.958c-.156.02-.43-.105-.704-.28l-1.145 1.77a.332.332 0 0 1-.465.095l-.162-.11a.332.332 0 0 1-.078-.476l1.296-1.702c-.167-.153-.282-.295-.29-.379a.798.798 0 0 1 .014-.183l-2.224.042a.332.332 0 0 1-.339-.332v-.195c0-.191.16-.343.352-.332l2.378.137c.035-.12.068-.23.095-.316C1.2 17.645 0 14.887 0 11.352 0 5.082 5.206 0 11.629 0c6.422 0 11.629 5.083 11.629 11.352 0 3.513-1.215 6.257-3.169 8.167.029.09.068.217.108.355l2.422-.14c.19-.01.352.14.352.332v.195a.332.332 0 0 1-.34.332zm-3.722-1.789c1.82-1.645 3.019-4.113 3.019-7.452 0-5.505-4.581-10.023-10.3-10.023s-10.3 4.518-10.3 10.023c0 3.35 1.173 5.816 2.972 7.456 1.817 1.655 4.385 2.567 7.328 2.567 2.87 0 5.442-.909 7.281-2.57zm-3.072 1.31c.377-.372.569-1.143.636-1.469a.106.106 0 0 0-.123-.125l-2.542.41a.11.11 0 0 0-.091.087l-.293 1.428a.107.107 0 0 0 .094.129c.403.038 1.736.115 2.319-.46zm-8.418 0c-.377-.372-.569-1.143-.636-1.469a.106.106 0 0 1 .123-.125l2.542.41a.11.11 0 0 1 .091.087l.293 1.428a.107.107 0 0 1-.094.129c-.403.038-1.736.115-2.319-.46zm4.209-1.95c7.974 0 9.192-2.857 9.192-7.2 0-4.342-4.115-8.638-9.192-8.638s-9.192 4.296-9.192 8.638c0 4.343 1.218 7.2 9.192 7.2zm7.048-2.53c1.058-1.021 1.37-2.532 1.37-4.67 0-3.894-3.748-7.863-8.418-7.863-4.67 0-8.417 3.97-8.417 7.863 0 2.138.31 3.649 1.369 4.67 1.076 1.04 3.11 1.754 7.048 1.754s5.972-.714 7.048-1.753z" style="fill:#44739e;fill-opacity:1"/>
</svg>
