<svg width="24" height="24" viewBox="0 0 24 24" fill="none" xmlns="http://www.w3.org/2000/svg">
<path d="M22.8991 11.2844C22.8991 14.774 21.6394 17.4114 19.6806 19.182C17.7124 20.961 14.9888 21.9083 12 21.9083C8.94146 21.9083 6.22008 20.9596 4.27098 19.1837C2.33069 17.4159 1.10092 14.7792 1.10092 11.2844C1.10092 5.43193 5.96551 0.66055 12 0.66055C18.0345 0.66055 22.8991 5.43193 22.8991 11.2844Z" stroke="#44739E" stroke-width="1.3211"/>
<path d="M20.7523 10.8992C20.7523 13.0409 20.4463 14.6862 19.2736 15.8188C18.0922 16.9599 15.9388 17.6698 12 17.6698C8.06125 17.6698 5.90787 16.9599 4.72641 15.8188C3.5537 14.6862 3.24772 13.0409 3.24772 10.8992C3.24772 6.8053 7.15584 2.69733 12 2.69733C16.8442 2.69733 20.7523 6.8053 20.7523 10.8992Z" stroke="#44739E" stroke-width="0.770642"/>
<path d="M0.77063 20.1402V19.9461C0.77063 19.7562 0.930359 19.6054 1.11993 19.6163L3.99505 19.7822C4.16263 19.7919 4.29357 19.9306 4.29357 20.0984C4.29357 20.271 4.15543 20.4118 3.9829 20.4152L1.10726 20.4705C0.922399 20.474 0.77063 20.3251 0.77063 20.1402Z" fill="#44739E"/>
<path d="M2.54277 23.2613L2.3818 23.1527C2.22438 23.0465 2.18869 22.8298 2.30377 22.6787L4.04903 20.3879C4.15075 20.2544 4.33897 20.2234 4.47813 20.3172C4.62119 20.4137 4.66069 20.607 4.56696 20.7519L3.00477 23.1668C2.90435 23.3221 2.69605 23.3646 2.54277 23.2613Z" fill="#44739E"/>
<path d="M6.11771 23.7596L5.93768 23.8323C5.76163 23.9034 5.56199 23.8118 5.50112 23.632L4.57787 20.9041C4.52406 20.7451 4.60362 20.5717 4.75925 20.5088C4.91925 20.4442 5.10156 20.5195 5.16927 20.6782L6.29778 23.3238C6.37032 23.4938 6.28914 23.6903 6.11771 23.7596Z" fill="#44739E"/>
<path d="M23.2739 20.1402V19.9461C23.2739 19.7562 23.1142 19.6054 22.9246 19.6163L20.0495 19.7822C19.8819 19.7919 19.751 19.9306 19.751 20.0984C19.751 20.271 19.8891 20.4118 20.0617 20.4152L22.9373 20.4705C23.1222 20.474 23.2739 20.3251 23.2739 20.1402Z" fill="#44739E"/>
<path d="M21.5018 23.2613L21.6628 23.1527C21.8202 23.0465 21.8559 22.8298 21.7408 22.6787L19.9955 20.3879C19.8938 20.2544 19.7056 20.2234 19.5664 20.3172C19.4234 20.4137 19.3839 20.607 19.4776 20.7519L21.0398 23.1668C21.1402 23.3221 21.3485 23.3646 21.5018 23.2613Z" fill="#44739E"/>
<path d="M17.9268 23.7596L18.1069 23.8323C18.2829 23.9034 18.4826 23.8118 18.5434 23.632L19.4667 20.9041C19.5205 20.7451 19.4409 20.5717 19.2853 20.5088C19.1253 20.4442 18.943 20.5195 18.8753 20.6782L17.7468 23.3238C17.6742 23.4938 17.7554 23.6903 17.9268 23.7596Z" fill="#44739E"/>
<path d="M3.30407 20.6103C3.27857 20.3415 3.63419 19.2661 3.63419 19.2661L5.94497 20.8792C5.94497 20.8792 5.22972 21.632 4.84459 21.6857C4.45947 21.7395 3.32958 20.8792 3.30407 20.6103Z" fill="#44739E"/>
<path d="M20.696 20.6103C20.7215 20.3415 20.3658 19.2661 20.3658 19.2661L18.0551 20.8792C18.0551 20.8792 18.7703 21.632 19.1554 21.6857C19.5406 21.7395 20.6705 20.8792 20.696 20.6103Z" fill="#44739E"/>
<path d="M7.81653 19.9942C7.4417 19.6246 7.2505 18.8576 7.18391 18.5342C7.16881 18.4609 7.23193 18.3975 7.30585 18.4094L9.83324 18.817C9.8784 18.8243 9.91435 18.8587 9.92355 18.9035L10.2148 20.3225C10.2277 20.385 10.1849 20.4448 10.1214 20.4509C9.72045 20.4889 8.39601 20.5656 7.81653 19.9942Z" fill="#44739E"/>
<path d="M16.1835 19.9942C16.5583 19.6246 16.7495 18.8576 16.8161 18.5342C16.8312 18.4609 16.7681 18.3975 16.6942 18.4094L14.1668 18.817C14.1216 18.8243 14.0857 18.8587 14.0765 18.9035L13.7852 20.3225C13.7724 20.385 13.8151 20.4448 13.8786 20.4509C14.2796 20.4889 15.604 20.5656 16.1835 19.9942Z" fill="#44739E"/>
</svg>
