<svg width="24" height="24" viewBox="0 0 24 24" fill="none" xmlns="http://www.w3.org/2000/svg">
<path fill-rule="evenodd" clip-rule="evenodd" d="M21.1376 10.8992C21.1376 15.2161 19.9266 18.0551 12 18.0551C4.07341 18.0551 2.8624 15.2161 2.8624 10.8992C2.8624 6.58223 6.95345 2.31201 12 2.31201C17.0466 2.31201 21.1376 6.58223 21.1376 10.8992ZM20.367 10.8992C20.367 13.0242 20.0578 14.5258 19.0059 15.5417C17.9366 16.5745 15.9142 17.2845 12 17.2845C8.0858 17.2845 6.06344 16.5745 4.9941 15.5417C3.94224 14.5258 3.63304 13.0242 3.63304 10.8992C3.63304 7.02837 7.35823 3.08265 12 3.08265C16.6418 3.08265 20.367 7.02837 20.367 10.8992Z" fill="#44739E"/>
<path d="M7.81653 19.9942C7.4417 19.6246 7.2505 18.8576 7.18391 18.5342C7.16881 18.4609 7.23193 18.3975 7.30585 18.4094L9.83324 18.817C9.8784 18.8243 9.91435 18.8587 9.92355 18.9035L10.2148 20.3225C10.2277 20.385 10.1849 20.4448 10.1214 20.4509C9.72045 20.4889 8.39601 20.5656 7.81653 19.9942Z" fill="#44739E"/>
<path d="M16.8161 18.5342C16.7495 18.8576 16.5583 19.6246 16.1835 19.9942C15.604 20.5656 14.2796 20.4889 13.8786 20.4509C13.8151 20.4448 13.7724 20.385 13.7852 20.3225L14.0765 18.9035C14.0857 18.8587 14.1216 18.8243 14.1668 18.817L16.6942 18.4094C16.7681 18.3975 16.8312 18.4609 16.8161 18.5342Z" fill="#44739E"/>
<path fill-rule="evenodd" clip-rule="evenodd" d="M18.214 21.0375C16.4045 22.0488 14.2639 22.5688 12 22.5688C9.70343 22.5688 7.56328 22.0559 5.76419 21.0584C5.67798 21.1404 5.56802 21.2407 5.4503 21.3368L6.29778 23.3235C6.37032 23.4936 6.28914 23.6901 6.11771 23.7593L5.93768 23.8321C5.76162 23.9032 5.56199 23.8116 5.50111 23.6317L4.84259 21.686C4.6881 21.7062 4.41589 21.5816 4.14291 21.4076L3.00476 23.167C2.90434 23.3223 2.69605 23.3648 2.54277 23.2614L2.38179 23.1529C2.22437 23.0467 2.18869 22.8299 2.30376 22.6789L3.59249 20.9873C3.42666 20.8347 3.312 20.6939 3.30407 20.6103C3.30001 20.5675 3.30563 20.5041 3.31794 20.4279L1.10726 20.4705C0.922399 20.474 0.77063 20.3251 0.77063 20.1402V19.9461C0.77063 19.7562 0.930359 19.6054 1.11993 19.6163L3.48388 19.7527C3.51848 19.6338 3.55218 19.5239 3.57886 19.4388C1.63275 17.5389 0.440369 14.7985 0.440369 11.2844C0.440369 5.0522 5.61579 0 12 0C18.3842 0 23.5596 5.0522 23.5596 11.2844C23.5596 14.7764 22.3517 17.5044 20.4098 19.4029C20.4381 19.4923 20.4769 19.6178 20.5169 19.7553L22.9246 19.6163C23.1142 19.6054 23.2739 19.7562 23.2739 19.9461V20.1402C23.2739 20.3251 23.1222 20.474 22.9373 20.4705L20.6819 20.4271C20.6944 20.5037 20.7 20.5673 20.696 20.6103C20.6884 20.6895 20.5853 20.8198 20.4336 20.963L21.7408 22.6789C21.8559 22.8299 21.8202 23.0467 21.6628 23.1529L21.5018 23.2614C21.3485 23.3648 21.1402 23.3223 21.0398 23.167L19.8885 21.3873C19.6294 21.5561 19.367 21.6835 19.2013 21.688L18.5434 23.6317C18.4826 23.8116 18.2829 23.9032 18.1069 23.8321L17.9268 23.7593C17.7554 23.6901 17.6742 23.4936 17.7468 23.3235L18.5828 21.3636C18.4424 21.2512 18.3107 21.1304 18.214 21.0375ZM22.2385 11.2844C22.2385 14.6029 21.0467 17.0568 19.2377 18.6919C17.4098 20.3441 14.8527 21.2477 12 21.2477C9.07502 21.2477 6.52218 20.3412 4.71586 18.6955C2.92715 17.0657 1.76147 14.6135 1.76147 11.2844C1.76147 5.81165 6.31523 1.3211 12 1.3211C17.6848 1.3211 22.2385 5.81165 22.2385 11.2844Z" fill="#44739E"/>
</svg>
